<?xml version="1.0" encoding="UTF-8" standalone="no"?>
<!-- Generator: Adobe Illustrator 23.0.2, SVG Export Plug-In . SVG Version: 6.00 Build 0)  -->

<svg
   version="1.1"
   id="Capa_1"
   x="0px"
   y="0px"
   viewBox="0 0 280.6 80.400001"
   xml:space="preserve"
   sodipodi:docname="logo6.svg"
   inkscape:version="1.3 (0e150ed6c4, 2023-07-21)"
   width="280.60001"
   height="80.400002"
   xmlns:inkscape="http://www.inkscape.org/namespaces/inkscape"
   xmlns:sodipodi="http://sodipodi.sourceforge.net/DTD/sodipodi-0.dtd"
   xmlns="http://www.w3.org/2000/svg"
   xmlns:svg="http://www.w3.org/2000/svg"><defs
   id="defs23"><rect
     x="130.61053"
     y="22.231579"
     width="146.17262"
     height="95.040001"
     id="rect2" /><rect
     x="118.66105"
     y="21.953686"
     width="96.985268"
     height="74.475792"
     id="rect1" /><rect
     x="130.61053"
     y="22.231579"
     width="146.17262"
     height="95.040001"
     id="rect2-0" /></defs><sodipodi:namedview
   id="namedview23"
   pagecolor="#ffffff"
   bordercolor="#000000"
   borderopacity="0.25"
   inkscape:showpageshadow="2"
   inkscape:pageopacity="0.0"
   inkscape:pagecheckerboard="0"
   inkscape:deskcolor="#d1d1d1"
   inkscape:zoom="3.5984848"
   inkscape:cx="121.99579"
   inkscape:cy="57.802106"
   inkscape:window-width="1350"
   inkscape:window-height="728"
   inkscape:window-x="0"
   inkscape:window-y="0"
   inkscape:window-maximized="0"
   inkscape:current-layer="Capa_1"
   showguides="true"
   inkscape:lockguides="false"><sodipodi:guide
     position="1.1871344,-33.867552"
     orientation="0,-1"
     id="guide4"
     inkscape:locked="false" /><sodipodi:guide
     position="-12.783158,-39.650526"
     orientation="0,-1"
     id="guide6"
     inkscape:locked="false" /><sodipodi:guide
     position="-21.12,63.170527"
     orientation="1,0"
     id="guide1"
     inkscape:locked="false" /></sodipodi:namedview>&#10;<style
   type="text/css"
   id="style1">&#10;	.st0{fill:#54565A;}&#10;	.st1{fill:#A1B1C8;}&#10;	.st2{fill:#E1251B;}&#10;</style>&#10;&#10;&#10;&#10;&#10;&#10;&#10;&#10;&#10;&#10;&#10;&#10;&#10;&#10;&#10;&#10;&#10;&#10;&#10;&#10;<g
   id="g21"
   style="fill:#241c1c">&#10;	&#10;	&#10;	&#10;</g>&#10;&#10;&#10;<text
   xml:space="preserve"
   id="text1"
   style="white-space:pre;shape-inside:url(#rect1);display:inline;fill:#916f6f" /><path
   class="st1"
   d="m 73.074515,25.255762 c -0.07075,-0.07044 -0.07075,-0.140886 -0.07075,-0.140886 0.212244,0.352216 0.424488,0.704432 0.565983,0.986205 -0.212243,-0.352216 -0.353739,-0.704433 -0.565983,-0.986205 1.273463,2.465512 2.263933,4.860581 2.971413,7.255651 0.282991,1.127091 0.565983,2.254182 0.848975,3.381274 1.131967,7.88964 -1.131967,16.272382 -7.994515,21.203407 -5.164599,3.73349 -13.795845,5.846787 -22.639335,1.690637 C 39.54,55.546344 36.710083,49.910887 37.063823,44.0641 c 0.282991,-5.142355 4.174127,-9.016731 9.126482,-9.016731 3.608144,0 5.942825,2.324626 5.942825,2.324626 l 4.315623,-4.297036 C 53.83108,30.46856 50.647424,28.918809 46.614792,28.848366 37.84205,28.637036 31.616233,35.540471 31.828476,43.782327 32.252964,58.082299 44.63385,63.858643 55.387534,63.435983 67.202437,62.942881 72.650027,56.743878 75.409196,50.544875 75.479944,50.333546 75.550692,50.192659 75.62144,49.98133 71.730304,60.618255 60.97662,67.944349 45.199834,64.351745 33.597174,61.674903 28.432576,53.010388 28.432576,42.937008 c 0,-9.298504 7.994515,-17.32903 17.333241,-17.32903 4.598615,0 9.338726,2.18374 12.380886,5.142355 l 0.212244,0.211329 4.315623,-4.297036 c -4.174127,-4.156149 -9.904709,-6.692105 -16.272022,-6.692105 -12.734626,0 -23.063822,10.284709 -23.063822,22.964487 0,12.679779 9.480221,25.148227 26.88421,25.218671 16.625762,0.140886 26.671967,-12.609335 27.308698,-24.936898 0,-0.422659 0.07075,-0.845318 0.07075,-1.267977 0,-0.140887 0,-0.281773 0,-0.42266 0,0 0,0 0,0 0,-0.07044 0,-0.140886 0,-0.281773 C 78.380609,59.561607 63.311302,73.086704 43.997119,70.409862 30.484266,68.578338 20.367313,56.955208 20.367313,43.148338 c 0,-13.80687 11.885651,-25.852659 25.752244,-25.852659 6.7918,0 13.795844,2.747285 18.323711,7.185208 l 0.282992,0.281773 4.315623,-4.297036 C 63.240554,14.548394 55.175291,10.95579 46.261052,10.95579 28.432576,10.95579 14,25.326205 14,43.077895 14,60.829585 28.432576,75.2 46.261052,75.2 c 17.828477,0 32.261053,-14.370415 32.261053,-32.122105 0,-6.551219 -1.980942,-12.679778 -5.44759,-17.822133 z"
   id="path22"
   style="fill:#a1b1c8;stroke-width:0.705954" /><path
   class="st2"
   d="m 80.037895,25.690474 c 1.8,-9.3 1.7,-18.3000003 1.7,-18.3000003 v 0 0 c 0,0 -9,-0.1 -18.3,1.7 3.2,1.9000003 6.2,4.2000003 8.9,6.9000003 0.1,0.1 0.3,0.3 0.4,0.4 v 0 0 0 0 c 0.1,0.1 0.3,0.3 0.4,0.4 2.7,2.8 5,5.8 6.9,8.9 z"
   id="path23"
   style="fill:#e1251b" /></svg>
