<?xml version="1.0" encoding="UTF-8" standalone="no"?>
<!-- Generator: Adobe Illustrator 23.0.2, SVG Export Plug-In . SVG Version: 6.00 Build 0)  -->

<svg
   version="1.1"
   id="Capa_1"
   x="0px"
   y="0px"
   viewBox="0 0 280.6 80.400001"
   xml:space="preserve"
   sodipodi:docname="logo6.svg"
   inkscape:version="1.3 (0e150ed6c4, 2023-07-21)"
   width="280.60001"
   height="80.400002"
   xmlns:inkscape="http://www.inkscape.org/namespaces/inkscape"
   xmlns:sodipodi="http://sodipodi.sourceforge.net/DTD/sodipodi-0.dtd"
   xmlns="http://www.w3.org/2000/svg"
   xmlns:svg="http://www.w3.org/2000/svg"><defs
   id="defs23"><rect
     x="130.61053"
     y="22.231579"
     width="146.17262"
     height="95.040001"
     id="rect2" /><rect
     x="118.66105"
     y="21.953686"
     width="96.985268"
     height="74.475792"
     id="rect1" /><rect
     x="130.61053"
     y="22.231579"
     width="146.17262"
     height="95.040001"
     id="rect2-0" /></defs><sodipodi:namedview
   id="namedview23"
   pagecolor="#ffffff"
   bordercolor="#000000"
   borderopacity="0.25"
   inkscape:showpageshadow="2"
   inkscape:pageopacity="0.0"
   inkscape:pagecheckerboard="0"
   inkscape:deskcolor="#d1d1d1"
   inkscape:zoom="3.5984848"
   inkscape:cx="121.99579"
   inkscape:cy="57.802106"
   inkscape:window-width="1350"
   inkscape:window-height="728"
   inkscape:window-x="0"
   inkscape:window-y="0"
   inkscape:window-maximized="0"
   inkscape:current-layer="Capa_1"
   showguides="true"
   inkscape:lockguides="false"><sodipodi:guide
     position="1.1871344,-33.867552"
     orientation="0,-1"
     id="guide4"
     inkscape:locked="false" /><sodipodi:guide
     position="-12.783158,-39.650526"
     orientation="0,-1"
     id="guide6"
     inkscape:locked="false" /><sodipodi:guide
     position="-21.12,63.170527"
     orientation="1,0"
     id="guide1"
     inkscape:locked="false" /></sodipodi:namedview>&#10;<style
   type="text/css"
   id="style1">&#10;	.st0{fill:#54565A;}&#10;	.st1{fill:#A1B1C8;}&#10;	.st2{fill:#E1251B;}&#10;</style>&#10;&#10;&#10;&#10;&#10;&#10;&#10;&#10;&#10;&#10;&#10;&#10;&#10;&#10;&#10;&#10;&#10;&#10;&#10;&#10;<g
   id="g21"
   style="fill:#241c1c">&#10;	&#10;	&#10;	&#10;</g>&#10;<path
   class="st1"
   d="m 65.504322,26.276454 c -0.06831,-0.06831 -0.06831,-0.136621 -0.06831,-0.136621 0.204931,0.341551 0.409861,0.683103 0.546482,0.956344 -0.204931,-0.341552 -0.341551,-0.683103 -0.546482,-0.956344 1.229585,2.390858 2.185928,4.713407 2.869031,7.035955 0.273241,1.092965 0.546482,2.185928 0.819722,3.278893 1.092965,7.650747 -1.092963,15.779667 -7.719057,20.561384 -4.986652,3.620443 -13.320501,5.669751 -21.859283,1.639447 -6.421163,-3.005652 -9.153573,-8.470471 -8.812022,-14.140222 0.273242,-4.986648 4.030305,-8.743712 8.812022,-8.743712 3.483823,0 5.738061,2.254238 5.738061,2.254238 l 4.166925,-4.166925 C 46.923932,31.331412 43.849971,29.828586 39.956287,29.760276 31.485815,29.555345 25.474514,36.24975 25.679445,44.242049 26.089306,58.10903 38.0436,63.71047 48.426758,63.300608 c 11.407811,-0.478172 16.6677,-6.489473 19.3318,-12.500775 0.06831,-0.204931 0.13662,-0.341551 0.204931,-0.546482 -3.757062,10.314848 -14.14022,17.419113 -29.373406,13.935291 -11.20288,-2.59579 -16.189528,-10.997951 -16.189528,-20.766316 0,-9.016952 7.719058,-16.804322 16.73601,-16.804322 4.440167,0 9.016954,2.117619 11.954294,4.986649 l 0.204931,0.204931 4.166926,-4.166926 c -4.030305,-4.030304 -9.563436,-6.489473 -15.711358,-6.489473 -12.295844,0 -22.269142,9.973296 -22.269142,22.269141 0,12.295845 9.153574,24.386759 25.957895,24.455069 16.052909,0.136621 25.752965,-12.227535 26.367757,-24.181828 0,-0.409862 0.06831,-0.819723 0.06831,-1.229584 0,-0.136621 0,-0.273241 0,-0.409862 0,0 0,0 0,0 0,-0.06831 0,-0.136621 0,-0.273241 C 70.627588,59.543545 56.077505,72.659113 37.428807,70.063323 24.381552,68.287257 14.613186,57.016065 14.613186,43.627257 c 0,-13.388809 11.476122,-25.069862 24.864931,-25.069862 6.557784,0 13.320498,2.6641 17.692354,6.967646 l 0.273241,0.273241 4.166926,-4.166926 c -5.601441,-5.73806 -13.388809,-9.221883 -21.995901,-9.221883 -17.214182,0 -31.1494734,13.93529 -31.1494734,31.149473 0,17.214183 13.9352914,31.149474 31.1494734,31.149474 17.214183,0 31.149474,-13.935291 31.149474,-31.149474 0,-6.352852 -1.912687,-12.295844 -5.259889,-17.282492 z"
   id="path22"
   style="fill:#280b0b;stroke-width:0.683103" />&#10;<path
   class="st2"
   d="m 71.397895,25.418947 c 1.8,-9.3 1.7,-18.2999998 1.7,-18.2999998 v 0 0 c 0,0 -9,-0.1 -18.3,1.7 3.2,1.8999998 6.2,4.1999998 8.9,6.8999998 0.1,0.1 0.3,0.3 0.4,0.4 v 0 0 0 0 c 0.1,0.1 0.3,0.3 0.4,0.4 2.7,2.8 5,5.8 6.9,8.9 z"
   id="path23"
   style="fill:#916f6f" />&#10;<text
   xml:space="preserve"
   id="text1"
   style="white-space:pre;shape-inside:url(#rect1);display:inline;fill:#916f6f" /><text
   xml:space="preserve"
   id="text2"
   style="font-size:5.33333px;white-space:pre;shape-inside:url(#rect2);shape-padding:2.50105;display:inline;fill:#916f6f"
   transform="matrix(0.5792513,0,0,0.63796175,21.548294,-6.1654421)"><tspan
     x="133.11328"
     y="32.033018"
     id="tspan3"><tspan
       style="font-size:8px"
       id="tspan2">Lorem ipsum dolor, sit amet </tspan></tspan><tspan
     x="133.11328"
     y="42.033018"
     id="tspan5"><tspan
       style="font-size:8px"
       id="tspan4">consectetur adipisicing elit. </tspan></tspan><tspan
     x="133.11328"
     y="52.033018"
     id="tspan7"><tspan
       style="font-size:8px"
       id="tspan6">Accusantium minima aliquid aut </tspan></tspan><tspan
     x="133.11328"
     y="62.033018"
     id="tspan9"><tspan
       style="font-size:8px"
       id="tspan8">similique perferendis pariatur </tspan></tspan><tspan
     x="133.11328"
     y="72.033018"
     id="tspan11"><tspan
       style="font-size:8px"
       id="tspan10">suscipit? Illo dignissimos quas </tspan></tspan><tspan
     x="133.11328"
     y="82.033018"
     id="tspan13"><tspan
       style="font-size:8px"
       id="tspan12">distinctio repellat velit, omnis </tspan></tspan><tspan
     x="133.11328"
     y="92.033018"
     id="tspan15"><tspan
       style="font-size:8px"
       id="tspan14">amet veritatis consequatur </tspan></tspan><tspan
     x="133.11328"
     y="102.03302"
     id="tspan17"><tspan
       style="font-size:8px"
       id="tspan16">quibusdam tempora molestiae </tspan></tspan><tspan
     x="133.11328"
     y="112.03302"
     id="tspan19"><tspan
   style="font-size:8px"
   id="tspan18">repellendus.</tspan>&#10;</tspan><tspan
     x="133.11328"
     y="119.60013"
     id="tspan20">   </tspan></text><text
   xml:space="preserve"
   id="text2-4"
   style="font-size:5.33333px;white-space:pre;shape-inside:url(#rect2-0);shape-padding:2.50105;display:inline;fill:#916f6f"
   transform="matrix(0.5792513,0,0,0.63796175,116.53396,-6.6740182)"><tspan
     x="133.11328"
     y="32.033018"
     id="tspan22"><tspan
       style="font-size:8px"
       id="tspan21">Lorem ipsum dolor, sit amet </tspan></tspan><tspan
     x="133.11328"
     y="42.033018"
     id="tspan24"><tspan
       style="font-size:8px"
       id="tspan23">consectetur adipisicing elit. </tspan></tspan><tspan
     x="133.11328"
     y="52.033018"
     id="tspan26"><tspan
       style="font-size:8px"
       id="tspan25">Accusantium minima aliquid aut </tspan></tspan><tspan
     x="133.11328"
     y="62.033018"
     id="tspan28"><tspan
       style="font-size:8px"
       id="tspan27">similique perferendis pariatur </tspan></tspan><tspan
     x="133.11328"
     y="72.033018"
     id="tspan30"><tspan
       style="font-size:8px"
       id="tspan29">suscipit? Illo dignissimos quas </tspan></tspan><tspan
     x="133.11328"
     y="82.033018"
     id="tspan32"><tspan
       style="font-size:8px"
       id="tspan31">distinctio repellat velit, omnis </tspan></tspan><tspan
     x="133.11328"
     y="92.033018"
     id="tspan34"><tspan
       style="font-size:8px"
       id="tspan33">amet veritatis consequatur </tspan></tspan><tspan
     x="133.11328"
     y="102.03302"
     id="tspan36"><tspan
       style="font-size:8px"
       id="tspan35">quibusdam tempora molestiae </tspan></tspan><tspan
     x="133.11328"
     y="112.03302"
     id="tspan38"><tspan
   style="font-size:8px"
   id="tspan37">repellendus.</tspan>&#10;</tspan><tspan
     x="133.11328"
     y="119.60013"
     id="tspan58">   </tspan></text></svg>
